# 3ds Max Wavefront OBJ Exporter v0.97b - (c)2007 guruware
# File Created: 13.03.2018 17:18:01

mtllib arrow3.mtl

#
# object default
#

v  -3.8821 3.4046 -0.0704
v  -4.4719 2.5818 -0.0704
v  -4.0966 3.1434 -0.0704
v  -4.2934 2.8687 -0.0704
v  -3.6512 3.6512 -0.0704
v  -4.6311 2.2838 -0.0704
v  -3.4046 3.8822 -0.0704
v  -4.7705 1.9760 -0.0704
v  -3.1434 4.0966 -0.0704
v  -4.8897 1.6598 -0.0704
v  -2.8688 4.2934 -0.0704
v  -4.9877 1.3364 -0.0704
v  -2.5818 4.4718 -0.0704
v  -5.0645 1.0073 -0.0704
v  -2.2838 4.6311 -0.0704
v  -5.1194 0.6740 -0.0704
v  -1.9760 4.7706 -0.0704
v  -5.1525 0.3377 -0.0704
v  -1.6598 4.8896 -0.0704
v  -5.1637 -0.0000 -0.0704
v  -1.3364 4.9877 -0.0704
v  -5.1525 -0.3378 -0.0704
v  -1.0074 5.0644 -0.0704
v  -5.1194 -0.6740 -0.0704
v  -0.6740 5.1195 -0.0704
v  -5.0645 -1.0074 -0.0704
v  -0.3377 5.1526 -0.0704
v  -4.9877 -1.3365 -0.0704
v  0.0000 5.1636 -0.0704
v  -4.8897 -1.6599 -0.0704
v  0.3378 5.1526 -0.0704
v  -4.7705 -1.9762 -0.0704
v  0.6740 5.1195 -0.0704
v  -4.6311 -2.2840 -0.0704
v  1.0074 5.0644 -0.0704
v  -4.4719 -2.5818 -0.0704
v  1.3365 4.9877 -0.0704
v  -4.2934 -2.8688 -0.0704
v  1.6598 4.8896 -0.0704
v  -4.0966 -3.1435 -0.0704
v  1.9761 4.7706 -0.0704
v  -3.8821 -3.4047 -0.0704
v  2.2839 4.6311 -0.0704
v  -3.6512 -3.6513 -0.0704
v  2.5819 4.4718 -0.0704
v  -3.4046 -3.8823 -0.0704
v  2.8688 4.2934 -0.0704
v  -3.1434 -4.0967 -0.0704
v  3.1435 4.0966 -0.0704
v  -2.8687 -4.2935 -0.0704
v  3.4047 3.8822 -0.0704
v  -2.5818 -4.4718 -0.0704
v  3.6513 3.6512 -0.0704
v  -2.2838 -4.6312 -0.0704
v  3.8823 3.4046 -0.0704
v  -1.9760 -4.7707 -0.0704
v  4.0966 3.1434 -0.0704
v  -1.6598 -4.8896 -0.0704
v  4.2935 2.8687 -0.0704
v  -1.3364 -4.9878 -0.0704
v  4.4719 2.5818 -0.0704
v  -1.0073 -5.0644 -0.0704
v  4.6312 2.2838 -0.0704
v  -0.6740 -5.1195 -0.0704
v  4.7706 1.9760 -0.0704
v  -0.3377 -5.1527 -0.0704
v  4.8897 1.6598 -0.0704
v  0.0000 -5.1636 -0.0704
v  4.9878 1.3364 -0.0704
v  0.3378 -5.1527 -0.0704
v  5.0645 1.0073 -0.0704
v  0.6740 -5.1195 -0.0704
v  5.1195 0.6740 -0.0704
v  1.0074 -5.0644 -0.0704
v  5.1527 0.3377 -0.0704
v  1.3365 -4.9878 -0.0704
v  5.1637 -0.0000 -0.0704
v  1.6598 -4.8896 -0.0704
v  5.1527 -0.3378 -0.0704
v  1.9761 -4.7707 -0.0704
v  5.1195 -0.6740 -0.0704
v  2.2839 -4.6312 -0.0704
v  5.0645 -1.0074 -0.0704
v  2.5819 -4.4718 -0.0704
v  4.9878 -1.3365 -0.0704
v  2.8688 -4.2935 -0.0704
v  4.8897 -1.6599 -0.0704
v  3.1435 -4.0967 -0.0704
v  4.7706 -1.9762 -0.0704
v  3.4047 -3.8823 -0.0704
v  4.6312 -2.2840 -0.0704
v  3.6513 -3.6513 -0.0704
v  4.4719 -2.5818 -0.0704
v  3.8823 -3.4047 -0.0704
v  4.2935 -2.8688 -0.0704
v  4.0966 -3.1435 -0.0704
v  0.0000 -0.0000 10.2569
# 97 vertices

vn -0.6431 0.5640 -0.5180
vn -0.7409 0.4277 -0.5179
vn -0.6786 0.5208 -0.5179
vn -0.6786 0.5208 -0.5179
vn -0.0000 0.0000 1.0000
vn -0.6431 0.5640 -0.5180
vn -0.6431 0.5640 -0.5180
vn -0.0000 0.0000 1.0000
vn -0.6049 0.6048 -0.5179
vn -0.6049 0.6048 -0.5179
vn -0.0000 0.0000 1.0000
vn -0.5640 0.6431 -0.5180
vn -0.6049 0.6048 -0.5179
vn -0.5640 0.6431 -0.5180
vn -0.7672 0.3782 -0.5180
vn -0.7409 0.4277 -0.5179
vn -0.6049 0.6048 -0.5179
vn -0.7672 0.3782 -0.5180
vn -0.7672 0.3782 -0.5180
vn -0.0000 0.0000 1.0000
vn -0.7409 0.4277 -0.5179
vn -0.7409 0.4277 -0.5179
vn -0.0000 0.0000 1.0000
vn -0.7112 0.4752 -0.5180
vn -0.7902 0.3275 -0.5180
vn -0.0000 0.0000 1.0000
vn -0.7672 0.3782 -0.5180
vn -0.8100 0.2750 -0.5179
vn -0.0000 0.0000 1.0000
vn -0.7902 0.3275 -0.5180
vn -0.7902 0.3275 -0.5180
vn -0.5207 0.6786 -0.5180
vn -0.8100 0.2750 -0.5179
vn -0.5207 0.6786 -0.5180
vn -0.4753 0.7112 -0.5179
vn -0.8100 0.2750 -0.5179
vn -0.8100 0.2750 -0.5179
vn -0.4753 0.7112 -0.5179
vn -0.8262 0.2214 -0.5180
vn -0.4753 0.7112 -0.5179
vn -0.4277 0.7408 -0.5180
vn -0.8262 0.2214 -0.5180
vn -0.8262 0.2214 -0.5180
vn -0.4277 0.7408 -0.5180
vn -0.8390 0.1668 -0.5179
vn -0.8390 0.1668 -0.5179
vn -0.0000 0.0000 1.0000
vn -0.8262 0.2214 -0.5180
vn -0.8481 0.1115 -0.5180
vn -0.0000 0.0000 1.0000
vn -0.8390 0.1668 -0.5179
vn -0.8390 0.1668 -0.5179
vn -0.3783 0.7672 -0.5180
vn -0.8481 0.1115 -0.5180
vn -0.3783 0.7672 -0.5180
vn -0.3274 0.7903 -0.5180
vn -0.8481 0.1115 -0.5180
vn -0.8481 0.1115 -0.5180
vn -0.3274 0.7903 -0.5180
vn -0.8535 0.0561 -0.5180
vn -0.3274 0.7903 -0.5180
vn -0.2750 0.8100 -0.5180
vn -0.8535 0.0561 -0.5180
vn -0.8535 0.0561 -0.5180
vn -0.2750 0.8100 -0.5180
vn -0.8555 -0.0000 -0.5179
vn -0.8555 -0.0000 -0.5179
vn -0.0000 0.0000 1.0000
vn -0.8535 0.0561 -0.5180
vn -0.8535 -0.0561 -0.5180
vn -0.0000 0.0000 1.0000
vn -0.8555 -0.0000 -0.5179
vn -0.8555 -0.0000 -0.5179
vn -0.2214 0.8263 -0.5180
vn -0.8535 -0.0561 -0.5180
vn -0.2214 0.8263 -0.5180
vn -0.1669 0.8390 -0.5180
vn -0.8535 -0.0561 -0.5180
vn -0.8535 -0.0561 -0.5180
vn -0.1669 0.8390 -0.5180
vn -0.8481 -0.1115 -0.5180
vn -0.1669 0.8390 -0.5180
vn -0.1117 0.8481 -0.5180
vn -0.8481 -0.1115 -0.5180
vn -0.8481 -0.1115 -0.5180
vn -0.1117 0.8481 -0.5180
vn -0.8390 -0.1668 -0.5179
vn -0.8390 -0.1668 -0.5179
vn -0.0000 0.0000 1.0000
vn -0.8481 -0.1115 -0.5180
vn -0.8262 -0.2214 -0.5180
vn -0.0000 0.0000 1.0000
vn -0.8390 -0.1668 -0.5179
vn -0.8390 -0.1668 -0.5179
vn -0.0559 0.8536 -0.5179
vn -0.8262 -0.2214 -0.5180
vn -0.0559 0.8536 -0.5179
vn -0.0000 0.8554 -0.5180
vn -0.8262 -0.2214 -0.5180
vn -0.8262 -0.2214 -0.5180
vn -0.0000 0.8554 -0.5180
vn -0.8101 -0.2749 -0.5179
vn -0.0000 0.8554 -0.5180
vn 0.0559 0.8536 -0.5179
vn -0.8101 -0.2749 -0.5179
vn -0.8101 -0.2749 -0.5179
vn 0.0559 0.8536 -0.5179
vn -0.7902 -0.3274 -0.5180
vn -0.7902 -0.3274 -0.5180
vn -0.0000 0.0000 1.0000
vn -0.8101 -0.2749 -0.5179
vn -0.7672 -0.3783 -0.5180
vn -0.0000 0.0000 1.0000
vn -0.7902 -0.3274 -0.5180
vn -0.7902 -0.3274 -0.5180
vn 0.1117 0.8481 -0.5180
vn -0.7672 -0.3783 -0.5180
vn 0.1117 0.8481 -0.5180
vn 0.1669 0.8390 -0.5180
vn -0.7672 -0.3783 -0.5180
vn -0.7672 -0.3783 -0.5180
vn 0.1669 0.8390 -0.5180
vn -0.7408 -0.4277 -0.5180
vn 0.1669 0.8390 -0.5180
vn 0.2214 0.8263 -0.5180
vn -0.7408 -0.4277 -0.5180
vn -0.7408 -0.4277 -0.5180
vn 0.2214 0.8263 -0.5180
vn -0.7113 -0.4752 -0.5180
vn -0.7113 -0.4752 -0.5180
vn -0.0000 0.0000 1.0000
vn -0.7408 -0.4277 -0.5180
vn -0.6786 -0.5208 -0.5179
vn -0.0000 0.0000 1.0000
vn -0.7113 -0.4752 -0.5180
vn -0.7113 -0.4752 -0.5180
vn 0.2750 0.8100 -0.5180
vn -0.6786 -0.5208 -0.5179
vn 0.2750 0.8100 -0.5180
vn 0.3274 0.7903 -0.5180
vn -0.6786 -0.5208 -0.5179
vn -0.6786 -0.5208 -0.5179
vn 0.3274 0.7903 -0.5180
vn -0.6431 -0.5640 -0.5180
vn 0.3274 0.7903 -0.5180
vn 0.3783 0.7672 -0.5180
vn -0.6431 -0.5640 -0.5180
vn -0.6431 -0.5640 -0.5180
vn 0.3783 0.7672 -0.5180
vn -0.6049 -0.6049 -0.5179
vn -0.6049 -0.6049 -0.5179
vn -0.0000 0.0000 1.0000
vn -0.6431 -0.5640 -0.5180
vn -0.5641 -0.6430 -0.5180
vn -0.0000 0.0000 1.0000
vn -0.6049 -0.6049 -0.5179
vn -0.6049 -0.6049 -0.5179
vn 0.4277 0.7408 -0.5180
vn -0.5641 -0.6430 -0.5180
vn 0.4277 0.7408 -0.5180
vn 0.4752 0.7112 -0.5180
vn -0.5641 -0.6430 -0.5180
vn -0.5641 -0.6430 -0.5180
vn 0.4752 0.7112 -0.5180
vn -0.5208 -0.6786 -0.5179
vn 0.4752 0.7112 -0.5180
vn 0.5207 0.6786 -0.5180
vn -0.5208 -0.6786 -0.5179
vn -0.5208 -0.6786 -0.5179
vn 0.5207 0.6786 -0.5180
vn -0.4751 -0.7114 -0.5179
vn -0.4751 -0.7114 -0.5179
vn -0.0000 0.0000 1.0000
vn -0.5208 -0.6786 -0.5179
vn -0.4276 -0.7408 -0.5180
vn -0.0000 0.0000 1.0000
vn -0.4751 -0.7114 -0.5179
vn -0.4751 -0.7114 -0.5179
vn 0.5640 0.6431 -0.5180
vn -0.4276 -0.7408 -0.5180
vn 0.5640 0.6431 -0.5180
vn 0.6049 0.6049 -0.5180
vn -0.4276 -0.7408 -0.5180
vn -0.4276 -0.7408 -0.5180
vn 0.6049 0.6049 -0.5180
vn -0.3784 -0.7672 -0.5179
vn 0.6049 0.6049 -0.5180
vn 0.6431 0.5640 -0.5180
vn -0.3784 -0.7672 -0.5179
vn -0.3784 -0.7672 -0.5179
vn 0.6431 0.5640 -0.5180
vn -0.3273 -0.7904 -0.5179
vn -0.3273 -0.7904 -0.5179
vn -0.0000 0.0000 1.0000
vn -0.3784 -0.7672 -0.5179
vn -0.2750 -0.8100 -0.5180
vn -0.0000 0.0000 1.0000
vn -0.3273 -0.7904 -0.5179
vn -0.3273 -0.7904 -0.5179
vn 0.6786 0.5207 -0.5180
vn -0.2750 -0.8100 -0.5180
vn 0.6786 0.5207 -0.5180
vn 0.7112 0.4752 -0.5180
vn -0.2750 -0.8100 -0.5180
vn -0.2750 -0.8100 -0.5180
vn 0.7112 0.4752 -0.5180
vn -0.2214 -0.8263 -0.5179
vn 0.7112 0.4752 -0.5180
vn 0.7408 0.4277 -0.5180
vn -0.2214 -0.8263 -0.5179
vn -0.2214 -0.8263 -0.5179
vn 0.7408 0.4277 -0.5180
vn -0.1668 -0.8389 -0.5180
vn -0.1668 -0.8389 -0.5180
vn -0.0000 0.0000 1.0000
vn -0.2214 -0.8263 -0.5179
vn -0.1117 -0.8481 -0.5179
vn -0.0000 0.0000 1.0000
vn -0.1668 -0.8389 -0.5180
vn -0.1668 -0.8389 -0.5180
vn 0.7672 0.3783 -0.5180
vn -0.1117 -0.8481 -0.5179
vn 0.7672 0.3783 -0.5180
vn 0.7903 0.3274 -0.5180
vn -0.1117 -0.8481 -0.5179
vn -0.1117 -0.8481 -0.5179
vn 0.7903 0.3274 -0.5180
vn -0.0559 -0.8536 -0.5179
vn 0.7903 0.3274 -0.5180
vn 0.8100 0.2750 -0.5180
vn -0.0559 -0.8536 -0.5179
vn -0.0559 -0.8536 -0.5179
vn 0.8100 0.2750 -0.5180
vn -0.0000 -0.8554 -0.5180
vn -0.0000 -0.8554 -0.5180
vn -0.0000 0.0000 1.0000
vn -0.0559 -0.8536 -0.5179
vn 0.0559 -0.8536 -0.5179
vn -0.0000 0.0000 1.0000
vn -0.0000 -0.8554 -0.5180
vn -0.0000 -0.8554 -0.5180
vn 0.8263 0.2214 -0.5180
vn 0.0559 -0.8536 -0.5179
vn 0.8263 0.2214 -0.5180
vn 0.8390 0.1669 -0.5180
vn 0.0559 -0.8536 -0.5179
vn 0.0559 -0.8536 -0.5179
vn 0.8390 0.1669 -0.5180
vn 0.1117 -0.8481 -0.5179
vn 0.8390 0.1669 -0.5180
vn 0.8481 0.1117 -0.5180
vn 0.1117 -0.8481 -0.5179
vn 0.1117 -0.8481 -0.5179
vn 0.8481 0.1117 -0.5180
vn 0.1668 -0.8390 -0.5180
vn 0.1668 -0.8390 -0.5180
vn -0.0000 0.0000 1.0000
vn 0.1117 -0.8481 -0.5179
vn 0.2214 -0.8263 -0.5179
vn -0.0000 0.0000 1.0000
vn 0.1668 -0.8390 -0.5180
vn 0.1668 -0.8390 -0.5180
vn 0.8536 0.0559 -0.5180
vn 0.2214 -0.8263 -0.5179
vn 0.8536 0.0559 -0.5180
vn 0.8554 -0.0000 -0.5180
vn 0.2214 -0.8263 -0.5179
vn 0.2214 -0.8263 -0.5179
vn 0.8554 -0.0000 -0.5180
vn 0.2750 -0.8100 -0.5180
vn 0.8554 -0.0000 -0.5180
vn 0.8536 -0.0559 -0.5180
vn 0.2750 -0.8100 -0.5180
vn 0.2750 -0.8100 -0.5180
vn 0.8536 -0.0559 -0.5180
vn 0.3273 -0.7904 -0.5179
vn 0.3273 -0.7904 -0.5179
vn -0.0000 0.0000 1.0000
vn 0.2750 -0.8100 -0.5180
vn 0.3785 -0.7672 -0.5179
vn -0.0000 0.0000 1.0000
vn 0.3273 -0.7904 -0.5179
vn 0.3273 -0.7904 -0.5179
vn 0.8481 -0.1117 -0.5180
vn 0.3785 -0.7672 -0.5179
vn 0.8481 -0.1117 -0.5180
vn 0.8390 -0.1669 -0.5180
vn 0.3785 -0.7672 -0.5179
vn 0.3785 -0.7672 -0.5179
vn 0.8390 -0.1669 -0.5180
vn 0.4276 -0.7408 -0.5180
vn 0.8390 -0.1669 -0.5180
vn 0.8263 -0.2214 -0.5180
vn 0.4276 -0.7408 -0.5180
vn 0.4276 -0.7408 -0.5180
vn 0.8263 -0.2214 -0.5180
vn 0.4751 -0.7114 -0.5179
vn 0.4751 -0.7114 -0.5179
vn -0.0000 0.0000 1.0000
vn 0.4276 -0.7408 -0.5180
vn 0.5208 -0.6786 -0.5179
vn -0.0000 0.0000 1.0000
vn 0.4751 -0.7114 -0.5179
vn 0.4751 -0.7114 -0.5179
vn 0.8100 -0.2749 -0.5180
vn 0.5208 -0.6786 -0.5179
vn 0.8100 -0.2749 -0.5180
vn 0.7903 -0.3273 -0.5179
vn 0.5208 -0.6786 -0.5179
vn 0.5208 -0.6786 -0.5179
vn 0.7903 -0.3273 -0.5179
vn 0.5640 -0.6431 -0.5180
vn 0.7903 -0.3273 -0.5179
vn 0.7672 -0.3784 -0.5179
vn 0.5640 -0.6431 -0.5180
vn 0.5640 -0.6431 -0.5180
vn 0.7672 -0.3784 -0.5179
vn 0.6048 -0.6049 -0.5179
vn 0.6048 -0.6049 -0.5179
vn -0.0000 0.0000 1.0000
vn 0.5640 -0.6431 -0.5180
vn 0.6431 -0.5640 -0.5179
vn -0.0000 0.0000 1.0000
vn 0.6048 -0.6049 -0.5179
vn 0.6048 -0.6049 -0.5179
vn 0.7408 -0.4277 -0.5180
vn 0.6431 -0.5640 -0.5179
vn 0.7408 -0.4277 -0.5180
vn 0.7113 -0.4752 -0.5179
vn 0.6431 -0.5640 -0.5179
vn 0.6431 -0.5640 -0.5179
vn 0.7113 -0.4752 -0.5179
vn 0.6786 -0.5207 -0.5180
vn 0.7113 -0.4752 -0.5179
vn -0.0000 0.0000 1.0000
vn 0.6786 -0.5207 -0.5180
vn 0.7408 -0.4277 -0.5180
vn -0.0000 0.0000 1.0000
vn 0.7113 -0.4752 -0.5179
vn 0.7672 -0.3784 -0.5179
vn -0.0000 0.0000 1.0000
vn 0.7408 -0.4277 -0.5180
vn 0.6786 -0.5207 -0.5180
vn -0.0000 0.0000 1.0000
vn 0.6431 -0.5640 -0.5179
vn 0.7672 -0.3784 -0.5179
vn 0.7408 -0.4277 -0.5180
vn 0.6048 -0.6049 -0.5179
vn 0.7903 -0.3273 -0.5179
vn -0.0000 0.0000 1.0000
vn 0.7672 -0.3784 -0.5179
vn 0.8100 -0.2749 -0.5180
vn -0.0000 0.0000 1.0000
vn 0.7903 -0.3273 -0.5179
vn 0.8263 -0.2214 -0.5180
vn -0.0000 0.0000 1.0000
vn 0.8100 -0.2749 -0.5180
vn 0.5640 -0.6431 -0.5180
vn -0.0000 0.0000 1.0000
vn 0.5208 -0.6786 -0.5179
vn 0.8263 -0.2214 -0.5180
vn 0.8100 -0.2749 -0.5180
vn 0.4751 -0.7114 -0.5179
vn 0.8390 -0.1669 -0.5180
vn -0.0000 0.0000 1.0000
vn 0.8263 -0.2214 -0.5180
vn 0.8481 -0.1117 -0.5180
vn -0.0000 0.0000 1.0000
vn 0.8390 -0.1669 -0.5180
vn 0.8536 -0.0559 -0.5180
vn -0.0000 0.0000 1.0000
vn 0.8481 -0.1117 -0.5180
vn 0.4276 -0.7408 -0.5180
vn -0.0000 0.0000 1.0000
vn 0.3785 -0.7672 -0.5179
vn 0.8536 -0.0559 -0.5180
vn 0.8481 -0.1117 -0.5180
vn 0.3273 -0.7904 -0.5179
vn 0.8554 -0.0000 -0.5180
vn -0.0000 0.0000 1.0000
vn 0.8536 -0.0559 -0.5180
vn 0.8536 0.0559 -0.5180
vn -0.0000 0.0000 1.0000
vn 0.8554 -0.0000 -0.5180
vn 0.8481 0.1117 -0.5180
vn -0.0000 0.0000 1.0000
vn 0.8536 0.0559 -0.5180
vn 0.2750 -0.8100 -0.5180
vn -0.0000 0.0000 1.0000
vn 0.2214 -0.8263 -0.5179
vn 0.8481 0.1117 -0.5180
vn 0.8536 0.0559 -0.5180
vn 0.1668 -0.8390 -0.5180
vn 0.8390 0.1669 -0.5180
vn -0.0000 0.0000 1.0000
vn 0.8481 0.1117 -0.5180
vn 0.8263 0.2214 -0.5180
vn -0.0000 0.0000 1.0000
vn 0.8390 0.1669 -0.5180
vn 0.8100 0.2750 -0.5180
vn -0.0000 0.0000 1.0000
vn 0.8263 0.2214 -0.5180
vn 0.1117 -0.8481 -0.5179
vn -0.0000 0.0000 1.0000
vn 0.0559 -0.8536 -0.5179
vn 0.8100 0.2750 -0.5180
vn 0.8263 0.2214 -0.5180
vn -0.0000 -0.8554 -0.5180
vn 0.7903 0.3274 -0.5180
vn -0.0000 0.0000 1.0000
vn 0.8100 0.2750 -0.5180
vn 0.7672 0.3783 -0.5180
vn -0.0000 0.0000 1.0000
vn 0.7903 0.3274 -0.5180
vn 0.7408 0.4277 -0.5180
vn -0.0000 0.0000 1.0000
vn 0.7672 0.3783 -0.5180
vn -0.0559 -0.8536 -0.5179
vn -0.0000 0.0000 1.0000
vn -0.1117 -0.8481 -0.5179
vn 0.7408 0.4277 -0.5180
vn 0.7672 0.3783 -0.5180
vn -0.1668 -0.8389 -0.5180
vn 0.7112 0.4752 -0.5180
vn -0.0000 0.0000 1.0000
vn 0.7408 0.4277 -0.5180
vn 0.6786 0.5207 -0.5180
vn -0.0000 0.0000 1.0000
vn 0.7112 0.4752 -0.5180
vn 0.6431 0.5640 -0.5180
vn -0.0000 0.0000 1.0000
vn 0.6786 0.5207 -0.5180
vn -0.2214 -0.8263 -0.5179
vn -0.0000 0.0000 1.0000
vn -0.2750 -0.8100 -0.5180
vn 0.6431 0.5640 -0.5180
vn 0.6786 0.5207 -0.5180
vn -0.3273 -0.7904 -0.5179
vn 0.6049 0.6049 -0.5180
vn -0.0000 0.0000 1.0000
vn 0.6431 0.5640 -0.5180
vn 0.5640 0.6431 -0.5180
vn -0.0000 0.0000 1.0000
vn 0.6049 0.6049 -0.5180
vn 0.5207 0.6786 -0.5180
vn -0.0000 0.0000 1.0000
vn 0.5640 0.6431 -0.5180
vn -0.3784 -0.7672 -0.5179
vn -0.0000 0.0000 1.0000
vn -0.4276 -0.7408 -0.5180
vn 0.5207 0.6786 -0.5180
vn 0.5640 0.6431 -0.5180
vn -0.4751 -0.7114 -0.5179
vn 0.4752 0.7112 -0.5180
vn -0.0000 0.0000 1.0000
vn 0.5207 0.6786 -0.5180
vn 0.4277 0.7408 -0.5180
vn -0.0000 0.0000 1.0000
vn 0.4752 0.7112 -0.5180
vn 0.3783 0.7672 -0.5180
vn -0.0000 0.0000 1.0000
vn 0.4277 0.7408 -0.5180
vn -0.5208 -0.6786 -0.5179
vn -0.0000 0.0000 1.0000
vn -0.5641 -0.6430 -0.5180
vn 0.3783 0.7672 -0.5180
vn 0.4277 0.7408 -0.5180
vn -0.6049 -0.6049 -0.5179
vn 0.3274 0.7903 -0.5180
vn -0.0000 0.0000 1.0000
vn 0.3783 0.7672 -0.5180
vn 0.2750 0.8100 -0.5180
vn -0.0000 0.0000 1.0000
vn 0.3274 0.7903 -0.5180
vn 0.2214 0.8263 -0.5180
vn -0.0000 0.0000 1.0000
vn 0.2750 0.8100 -0.5180
vn -0.6431 -0.5640 -0.5180
vn -0.0000 0.0000 1.0000
vn -0.6786 -0.5208 -0.5179
vn 0.2214 0.8263 -0.5180
vn 0.2750 0.8100 -0.5180
vn -0.7113 -0.4752 -0.5180
vn 0.1669 0.8390 -0.5180
vn -0.0000 0.0000 1.0000
vn 0.2214 0.8263 -0.5180
vn 0.1117 0.8481 -0.5180
vn -0.0000 0.0000 1.0000
vn 0.1669 0.8390 -0.5180
vn 0.0559 0.8536 -0.5179
vn -0.0000 0.0000 1.0000
vn 0.1117 0.8481 -0.5180
vn -0.7408 -0.4277 -0.5180
vn -0.0000 0.0000 1.0000
vn -0.7672 -0.3783 -0.5180
vn 0.0559 0.8536 -0.5179
vn 0.1117 0.8481 -0.5180
vn -0.7902 -0.3274 -0.5180
vn -0.0000 0.8554 -0.5180
vn -0.0000 0.0000 1.0000
vn 0.0559 0.8536 -0.5179
vn -0.0559 0.8536 -0.5179
vn -0.0000 0.0000 1.0000
vn -0.0000 0.8554 -0.5180
vn -0.1117 0.8481 -0.5180
vn -0.0000 0.0000 1.0000
vn -0.0559 0.8536 -0.5179
vn -0.8101 -0.2749 -0.5179
vn -0.0000 0.0000 1.0000
vn -0.8262 -0.2214 -0.5180
vn -0.1117 0.8481 -0.5180
vn -0.0559 0.8536 -0.5179
vn -0.8390 -0.1668 -0.5179
vn -0.1669 0.8390 -0.5180
vn -0.0000 0.0000 1.0000
vn -0.1117 0.8481 -0.5180
vn -0.2214 0.8263 -0.5180
vn -0.0000 0.0000 1.0000
vn -0.1669 0.8390 -0.5180
vn -0.2750 0.8100 -0.5180
vn -0.0000 0.0000 1.0000
vn -0.2214 0.8263 -0.5180
vn -0.8481 -0.1115 -0.5180
vn -0.0000 0.0000 1.0000
vn -0.8535 -0.0561 -0.5180
vn -0.2750 0.8100 -0.5180
vn -0.2214 0.8263 -0.5180
vn -0.8555 -0.0000 -0.5179
vn -0.3274 0.7903 -0.5180
vn -0.0000 0.0000 1.0000
vn -0.2750 0.8100 -0.5180
vn -0.3783 0.7672 -0.5180
vn -0.0000 0.0000 1.0000
vn -0.3274 0.7903 -0.5180
vn -0.4277 0.7408 -0.5180
vn -0.0000 0.0000 1.0000
vn -0.3783 0.7672 -0.5180
vn -0.8535 0.0561 -0.5180
vn -0.0000 0.0000 1.0000
vn -0.8481 0.1115 -0.5180
vn -0.4277 0.7408 -0.5180
vn -0.3783 0.7672 -0.5180
vn -0.8390 0.1668 -0.5179
vn -0.4753 0.7112 -0.5179
vn -0.0000 0.0000 1.0000
vn -0.4277 0.7408 -0.5180
vn -0.5207 0.6786 -0.5180
vn -0.0000 0.0000 1.0000
vn -0.4753 0.7112 -0.5179
vn -0.5640 0.6431 -0.5180
vn -0.5207 0.6786 -0.5180
vn -0.7902 0.3275 -0.5180
vn -0.8262 0.2214 -0.5180
vn -0.0000 0.0000 1.0000
vn -0.8100 0.2750 -0.5179
vn -0.7672 0.3782 -0.5180
vn -0.5640 0.6431 -0.5180
vn -0.7902 0.3275 -0.5180
vn -0.5640 0.6431 -0.5180
vn -0.0000 0.0000 1.0000
vn -0.5207 0.6786 -0.5180
vn -0.7112 0.4752 -0.5180
vn -0.0000 0.0000 1.0000
vn -0.6786 0.5208 -0.5179
vn -0.7112 0.4752 -0.5180
vn -0.6786 0.5208 -0.5179
vn -0.7409 0.4277 -0.5179
vn -0.6431 0.5640 -0.5180
vn -0.6049 0.6048 -0.5179
vn -0.7409 0.4277 -0.5179
# 570 vertex normals

g default
usemtl Orange
s 1
f 1//1 2//2 3//3 
f 3//4 97//5 1//6 
f 1//7 97//8 5//9 
f 5//10 97//11 7//12 
f 5//13 7//14 6//15 
f 2//16 5//17 6//18 
f 6//19 97//20 2//21 
f 2//22 97//23 4//24 
f 8//25 97//26 6//27 
f 10//28 97//29 8//30 
f 8//31 9//32 10//33 
f 9//34 11//35 10//36 
f 10//37 11//38 12//39 
f 11//40 13//41 12//42 
f 12//43 13//44 14//45 
f 14//46 97//47 12//48 
f 16//49 97//50 14//51 
f 14//52 15//53 16//54 
f 15//55 17//56 16//57 
f 16//58 17//59 18//60 
f 17//61 19//62 18//63 
f 18//64 19//65 20//66 
f 20//67 97//68 18//69 
f 22//70 97//71 20//72 
f 20//73 21//74 22//75 
f 21//76 23//77 22//78 
f 22//79 23//80 24//81 
f 23//82 25//83 24//84 
f 24//85 25//86 26//87 
f 26//88 97//89 24//90 
f 28//91 97//92 26//93 
f 26//94 27//95 28//96 
f 27//97 29//98 28//99 
f 28//100 29//101 30//102 
f 29//103 31//104 30//105 
f 30//106 31//107 32//108 
f 32//109 97//110 30//111 
f 34//112 97//113 32//114 
f 32//115 33//116 34//117 
f 33//118 35//119 34//120 
f 34//121 35//122 36//123 
f 35//124 37//125 36//126 
f 36//127 37//128 38//129 
f 38//130 97//131 36//132 
f 40//133 97//134 38//135 
f 38//136 39//137 40//138 
f 39//139 41//140 40//141 
f 40//142 41//143 42//144 
f 41//145 43//146 42//147 
f 42//148 43//149 44//150 
f 44//151 97//152 42//153 
f 46//154 97//155 44//156 
f 44//157 45//158 46//159 
f 45//160 47//161 46//162 
f 46//163 47//164 48//165 
f 47//166 49//167 48//168 
f 48//169 49//170 50//171 
f 50//172 97//173 48//174 
f 52//175 97//176 50//177 
f 50//178 51//179 52//180 
f 51//181 53//182 52//183 
f 52//184 53//185 54//186 
f 53//187 55//188 54//189 
f 54//190 55//191 56//192 
f 56//193 97//194 54//195 
f 58//196 97//197 56//198 
f 56//199 57//200 58//201 
f 57//202 59//203 58//204 
f 58//205 59//206 60//207 
f 59//208 61//209 60//210 
f 60//211 61//212 62//213 
f 62//214 97//215 60//216 
f 64//217 97//218 62//219 
f 62//220 63//221 64//222 
f 63//223 65//224 64//225 
f 64//226 65//227 66//228 
f 65//229 67//230 66//231 
f 66//232 67//233 68//234 
f 68//235 97//236 66//237 
f 70//238 97//239 68//240 
f 68//241 69//242 70//243 
f 69//244 71//245 70//246 
f 70//247 71//248 72//249 
f 71//250 73//251 72//252 
f 72//253 73//254 74//255 
f 74//256 97//257 72//258 
f 76//259 97//260 74//261 
f 74//262 75//263 76//264 
f 75//265 77//266 76//267 
f 76//268 77//269 78//270 
f 77//271 79//272 78//273 
f 78//274 79//275 80//276 
f 80//277 97//278 78//279 
f 82//280 97//281 80//282 
f 80//283 81//284 82//285 
f 81//286 83//287 82//288 
f 82//289 83//290 84//291 
f 83//292 85//293 84//294 
f 84//295 85//296 86//297 
f 86//298 97//299 84//300 
f 88//301 97//302 86//303 
f 86//304 87//305 88//306 
f 87//307 89//308 88//309 
f 88//310 89//311 90//312 
f 89//313 91//314 90//315 
f 90//316 91//317 92//318 
f 92//319 97//320 90//321 
f 94//322 97//323 92//324 
f 92//325 93//326 94//327 
f 93//328 95//329 94//330 
f 94//331 95//332 96//333 
f 95//334 97//335 96//336 
f 93//337 97//338 95//339 
f 91//340 97//341 93//342 
f 96//343 97//344 94//345 
f 91//346 93//347 92//348 
f 89//349 97//350 91//351 
f 87//352 97//353 89//354 
f 85//355 97//356 87//357 
f 90//358 97//359 88//360 
f 85//361 87//362 86//363 
f 83//364 97//365 85//366 
f 81//367 97//368 83//369 
f 79//370 97//371 81//372 
f 84//373 97//374 82//375 
f 79//376 81//377 80//378 
f 77//379 97//380 79//381 
f 75//382 97//383 77//384 
f 73//385 97//386 75//387 
f 78//388 97//389 76//390 
f 73//391 75//392 74//393 
f 71//394 97//395 73//396 
f 69//397 97//398 71//399 
f 67//400 97//401 69//402 
f 72//403 97//404 70//405 
f 67//406 69//407 68//408 
f 65//409 97//410 67//411 
f 63//412 97//413 65//414 
f 61//415 97//416 63//417 
f 66//418 97//419 64//420 
f 61//421 63//422 62//423 
f 59//424 97//425 61//426 
f 57//427 97//428 59//429 
f 55//430 97//431 57//432 
f 60//433 97//434 58//435 
f 55//436 57//437 56//438 
f 53//439 97//440 55//441 
f 51//442 97//443 53//444 
f 49//445 97//446 51//447 
f 54//448 97//449 52//450 
f 49//451 51//452 50//453 
f 47//454 97//455 49//456 
f 45//457 97//458 47//459 
f 43//460 97//461 45//462 
f 48//463 97//464 46//465 
f 43//466 45//467 44//468 
f 41//469 97//470 43//471 
f 39//472 97//473 41//474 
f 37//475 97//476 39//477 
f 42//478 97//479 40//480 
f 37//481 39//482 38//483 
f 35//484 97//485 37//486 
f 33//487 97//488 35//489 
f 31//490 97//491 33//492 
f 36//493 97//494 34//495 
f 31//496 33//497 32//498 
f 29//499 97//500 31//501 
f 27//502 97//503 29//504 
f 25//505 97//506 27//507 
f 30//508 97//509 28//510 
f 25//511 27//512 26//513 
f 23//514 97//515 25//516 
f 21//517 97//518 23//519 
f 19//520 97//521 21//522 
f 24//523 97//524 22//525 
f 19//526 21//527 20//528 
f 17//529 97//530 19//531 
f 15//532 97//533 17//534 
f 13//535 97//536 15//537 
f 18//538 97//539 16//540 
f 13//541 15//542 14//543 
f 11//544 97//545 13//546 
f 9//547 97//548 11//549 
f 7//550 9//551 8//552 
f 12//553 97//554 10//555 
f 6//556 7//557 8//558 
f 7//559 97//560 9//561 
f 4//562 97//563 3//564 
f 4//565 3//566 2//567 
f 1//568 5//569 2//570 
# 0 polygons - 190 triangles

