# 3ds Max Wavefront OBJ Exporter v0.97b - (c)2007 guruware
# File Created: 26.03.2018 12:59:37

mtllib newline2.mtl

#
# object Cylinder001
#

v  0.0077 0.0000 0.0008
v  0.0052 -0.0590 0.0112
v  0.0258 -0.0563 0.0108
v  0.0443 -0.0468 0.0091
v  0.0583 -0.0317 0.0064
v  0.0663 -0.0127 0.0031
v  0.0672 0.0078 -0.0005
v  0.0609 0.0273 -0.0040
v  0.0482 0.0436 -0.0068
v  0.0306 0.0546 -0.0088
v  0.0103 0.0590 -0.0095
v  -0.0104 0.0563 -0.0091
v  -0.0289 0.0468 -0.0074
v  -0.0429 0.0317 -0.0047
v  -0.0509 0.0127 -0.0014
v  -0.0518 -0.0078 0.0022
v  -0.0455 -0.0273 0.0057
v  -0.0328 -0.0436 0.0085
v  -0.0152 -0.0546 0.0105
v  0.0041 0.0376 0.7002
v  0.0248 0.0404 0.6999
v  0.0432 0.0500 0.6990
v  0.0573 0.0653 0.6974
v  0.0653 0.0844 0.6954
v  0.0661 0.1051 0.6933
v  0.0599 0.1249 0.6912
v  0.0472 0.1413 0.6894
v  0.0296 0.1524 0.6882
v  0.0092 0.1569 0.6877
v  -0.0114 0.1541 0.6879
v  -0.0299 0.1445 0.6888
v  -0.0440 0.1292 0.6904
v  -0.0519 0.1101 0.6924
v  -0.0528 0.0894 0.6946
v  -0.0465 0.0696 0.6967
v  -0.0338 0.0532 0.6984
v  -0.0162 0.0421 0.6996
v  0.0010 0.0861 1.3941
v  0.0217 0.0888 1.3942
v  0.0401 0.0985 1.3939
v  0.0542 0.1138 1.3935
v  0.0621 0.1331 1.3929
v  0.0630 0.1539 1.3921
v  0.0567 0.1737 1.3914
v  0.0440 0.1902 1.3908
v  0.0264 0.2014 1.3903
v  0.0061 0.2059 1.3900
v  -0.0146 0.2031 1.3900
v  -0.0330 0.1935 1.3902
v  -0.0471 0.1781 1.3906
v  -0.0550 0.1589 1.3913
v  -0.0559 0.1380 1.3920
v  -0.0496 0.1182 1.3927
v  -0.0369 0.1017 1.3934
v  -0.0193 0.0905 1.3939
v  -0.0041 0.0860 2.0898
v  0.0165 0.0888 2.0901
v  0.0350 0.0984 2.0906
v  0.0490 0.1138 2.0912
v  0.0570 0.1330 2.0920
v  0.0578 0.1538 2.0927
v  0.0515 0.1737 2.0933
v  0.0388 0.1902 2.0938
v  0.0212 0.2013 2.0940
v  0.0009 0.2058 2.0940
v  -0.0198 0.2031 2.0937
v  -0.0382 0.1934 2.0932
v  -0.0523 0.1780 2.0926
v  -0.0602 0.1588 2.0918
v  -0.0611 0.1380 2.0911
v  -0.0548 0.1181 2.0905
v  -0.0421 0.1016 2.0900
v  -0.0245 0.0905 2.0898
v  -0.0113 0.0375 2.7837
v  0.0093 0.0402 2.7843
v  0.0278 0.0498 2.7855
v  0.0418 0.0651 2.7873
v  0.0498 0.0842 2.7894
v  0.0506 0.1049 2.7915
v  0.0443 0.1247 2.7936
v  0.0316 0.1411 2.7951
v  0.0140 0.1522 2.7961
v  -0.0064 0.1567 2.7963
v  -0.0270 0.1540 2.7958
v  -0.0455 0.1444 2.7946
v  -0.0595 0.1291 2.7928
v  -0.0675 0.1099 2.7907
v  -0.0683 0.0892 2.7885
v  -0.0620 0.0694 2.7865
v  -0.0493 0.0530 2.7849
v  -0.0317 0.0419 2.7840
v  -0.0205 -0.0593 3.4726
v  0.0002 -0.0566 3.4733
v  0.0186 -0.0471 3.4753
v  0.0326 -0.0320 3.4782
v  0.0405 -0.0130 3.4816
v  0.0414 0.0075 3.4853
v  0.0350 0.0270 3.4886
v  0.0223 0.0433 3.4913
v  0.0047 0.0543 3.4930
v  -0.0157 0.0587 3.4935
v  -0.0363 0.0560 3.4927
v  -0.0548 0.0465 3.4907
v  -0.0688 0.0314 3.4878
v  -0.0767 0.0124 3.4844
v  -0.0775 -0.0081 3.4808
v  -0.0712 -0.0276 3.4774
v  -0.0584 -0.0439 3.4747
v  -0.0408 -0.0549 3.4730
v  -0.0181 -0.0003 3.4830
# 110 vertices

vn 0.0000 -0.1734 -0.9848
vn 0.0000 -0.1734 -0.9848
vn 0.0000 -0.1734 -0.9848
vn 0.0000 -0.1734 -0.9848
vn 0.0000 -0.1734 -0.9848
vn 0.0000 -0.1734 -0.9848
vn 0.0000 -0.1734 -0.9848
vn 0.0000 -0.1734 -0.9848
vn 0.0000 -0.1734 -0.9848
vn 0.0000 -0.1734 -0.9848
vn 0.0000 -0.1734 -0.9848
vn 0.0000 -0.1734 -0.9848
vn 0.0000 -0.1734 -0.9848
vn 0.0000 -0.1734 -0.9848
vn 0.0000 -0.1734 -0.9848
vn 0.0000 -0.1734 -0.9848
vn 0.0000 -0.1734 -0.9848
vn 0.0000 -0.1734 -0.9848
vn 0.0000 -0.1734 -0.9848
vn 0.0000 -0.1734 -0.9848
vn 0.0000 -0.1734 -0.9848
vn 0.0000 -0.1734 -0.9848
vn 0.0000 -0.1734 -0.9848
vn 0.0000 -0.1734 -0.9848
vn 0.0000 -0.1734 -0.9848
vn 0.0000 -0.1734 -0.9848
vn 0.0000 -0.1734 -0.9848
vn 0.0000 -0.1734 -0.9848
vn 0.0000 -0.1734 -0.9848
vn 0.0000 -0.1734 -0.9848
vn 0.0000 -0.1734 -0.9848
vn 0.0000 -0.1734 -0.9848
vn 0.0000 -0.1734 -0.9848
vn 0.0000 -0.1734 -0.9848
vn 0.0000 -0.1734 -0.9848
vn 0.0000 -0.1734 -0.9848
vn -0.0426 -0.9894 0.1388
vn 0.3027 -0.9438 0.1329
vn 0.3030 -0.9477 0.1003
vn -0.0425 -0.9937 0.1041
vn 0.3027 -0.9438 0.1329
vn 0.6113 -0.7836 0.1109
vn 0.6116 -0.7867 0.0844
vn 0.3030 -0.9477 0.1003
vn 0.6113 -0.7836 0.1109
vn 0.8456 -0.5285 0.0754
vn 0.8458 -0.5304 0.0582
vn 0.6116 -0.7867 0.0844
vn 0.8456 -0.5285 0.0754
vn 0.9773 -0.2096 0.0309
vn 0.9773 -0.2102 0.0250
vn 0.8458 -0.5304 0.0582
vn 0.9773 -0.2096 0.0309
vn 0.9908 0.1343 -0.0174
vn 0.9908 0.1349 -0.0112
vn 0.9773 -0.2102 0.0250
vn 0.9908 0.1343 -0.0174
vn 0.8849 0.4615 -0.0634
vn 0.8850 0.4634 -0.0460
vn 0.9908 0.1349 -0.0112
vn 0.8849 0.4615 -0.0634
vn 0.6728 0.7328 -0.1018
vn 0.6730 0.7358 -0.0752
vn 0.8850 0.4634 -0.0460
vn 0.6728 0.7328 -0.1018
vn 0.3804 0.9159 -0.1280
vn 0.3805 0.9199 -0.0954
vn 0.6730 0.7358 -0.0752
vn 0.3804 0.9159 -0.1280
vn 0.0426 0.9894 -0.1388
vn 0.0425 0.9937 -0.1041
vn 0.3805 0.9199 -0.0954
vn 0.0426 0.9894 -0.1388
vn -0.3002 0.9446 -0.1330
vn -0.3005 0.9485 -0.1004
vn 0.0425 0.9937 -0.1041
vn -0.3002 0.9446 -0.1330
vn -0.6074 0.7866 -0.1113
vn -0.6077 0.7897 -0.0847
vn -0.3005 0.9485 -0.1004
vn -0.6074 0.7866 -0.1113
vn -0.8420 0.5341 -0.0762
vn -0.8422 0.5360 -0.0588
vn -0.6077 0.7897 -0.0847
vn -0.8420 0.5341 -0.0762
vn -0.9757 0.2169 -0.0319
vn -0.9757 0.2176 -0.0257
vn -0.8422 0.5360 -0.0588
vn -0.9757 0.2169 -0.0319
vn -0.9918 -0.1268 0.0163
vn -0.9918 -0.1274 0.0104
vn -0.9757 0.2176 -0.0257
vn -0.9918 -0.1268 0.0163
vn -0.8880 -0.4556 0.0626
vn -0.8881 -0.4575 0.0453
vn -0.9918 -0.1274 0.0104
vn -0.8880 -0.4556 0.0626
vn -0.6765 -0.7295 0.1013
vn -0.6766 -0.7325 0.0748
vn -0.8881 -0.4575 0.0453
vn -0.6765 -0.7295 0.1013
vn -0.3828 -0.9149 0.1278
vn -0.3829 -0.9189 0.0953
vn -0.6766 -0.7325 0.0748
vn -0.3828 -0.9149 0.1278
vn -0.0426 -0.9894 0.1388
vn -0.0425 -0.9937 0.1041
vn -0.3829 -0.9189 0.0953
vn -0.0425 -0.9937 0.1041
vn 0.3030 -0.9477 0.1003
vn 0.3033 -0.9523 0.0349
vn -0.0422 -0.9985 0.0345
vn 0.3030 -0.9477 0.1003
vn 0.6116 -0.7867 0.0844
vn 0.6118 -0.7904 0.0311
vn 0.3033 -0.9523 0.0349
vn 0.6116 -0.7867 0.0844
vn 0.8458 -0.5304 0.0582
vn 0.8459 -0.5328 0.0236
vn 0.6118 -0.7904 0.0311
vn 0.8458 -0.5304 0.0582
vn 0.9773 -0.2102 0.0250
vn 0.9774 -0.2110 0.0131
vn 0.8459 -0.5328 0.0236
vn 0.9773 -0.2102 0.0250
vn 0.9908 0.1349 -0.0112
vn 0.9907 0.1358 0.0012
vn 0.9774 -0.2110 0.0131
vn 0.9908 0.1349 -0.0112
vn 0.8850 0.4634 -0.0460
vn 0.8848 0.4658 -0.0110
vn 0.9907 0.1358 0.0012
vn 0.8850 0.4634 -0.0460
vn 0.6730 0.7358 -0.0752
vn 0.6727 0.7396 -0.0217
vn 0.8848 0.4658 -0.0110
vn 0.6730 0.7358 -0.0752
vn 0.3805 0.9199 -0.0954
vn 0.3802 0.9244 -0.0299
vn 0.6727 0.7396 -0.0217
vn 0.3805 0.9199 -0.0954
vn 0.0425 0.9937 -0.1041
vn 0.0422 0.9985 -0.0345
vn 0.3802 0.9244 -0.0299
vn 0.0425 0.9937 -0.1041
vn -0.3005 0.9485 -0.1004
vn -0.3008 0.9531 -0.0350
vn 0.0422 0.9985 -0.0345
vn -0.3005 0.9485 -0.1004
vn -0.6077 0.7897 -0.0847
vn -0.6079 0.7934 -0.0312
vn -0.3008 0.9531 -0.0350
vn -0.6077 0.7897 -0.0847
vn -0.8422 0.5360 -0.0588
vn -0.8423 0.5384 -0.0237
vn -0.6079 0.7934 -0.0312
vn -0.8422 0.5360 -0.0588
vn -0.9757 0.2176 -0.0257
vn -0.9758 0.2184 -0.0134
vn -0.8423 0.5384 -0.0237
vn -0.9757 0.2176 -0.0257
vn -0.9918 -0.1274 0.0104
vn -0.9917 -0.1283 -0.0014
vn -0.9758 0.2184 -0.0134
vn -0.9918 -0.1274 0.0104
vn -0.8881 -0.4575 0.0453
vn -0.8879 -0.4599 0.0107
vn -0.9917 -0.1283 -0.0014
vn -0.8881 -0.4575 0.0453
vn -0.6766 -0.7325 0.0748
vn -0.6764 -0.7362 0.0216
vn -0.8879 -0.4599 0.0107
vn -0.6766 -0.7325 0.0748
vn -0.3829 -0.9189 0.0953
vn -0.3826 -0.9234 0.0299
vn -0.6764 -0.7362 0.0216
vn -0.3829 -0.9189 0.0953
vn -0.0425 -0.9937 0.1041
vn -0.0422 -0.9985 0.0345
vn -0.3826 -0.9234 0.0299
vn -0.0422 -0.9985 0.0345
vn 0.3033 -0.9523 0.0349
vn 0.3038 -0.9522 -0.0306
vn -0.0417 -0.9985 -0.0353
vn 0.3033 -0.9523 0.0349
vn 0.6118 -0.7904 0.0311
vn 0.6122 -0.7904 -0.0222
vn 0.3038 -0.9522 -0.0306
vn 0.6118 -0.7904 0.0311
vn 0.8459 -0.5328 0.0236
vn 0.8462 -0.5328 -0.0111
vn 0.6122 -0.7904 -0.0222
vn 0.8459 -0.5328 0.0236
vn 0.9774 -0.2110 0.0131
vn 0.9775 -0.2110 0.0013
vn 0.8462 -0.5328 -0.0111
vn 0.9774 -0.2110 0.0131
vn 0.9907 0.1358 0.0012
vn 0.9906 0.1358 0.0135
vn 0.9775 -0.2110 0.0013
vn 0.9907 0.1358 0.0012
vn 0.8848 0.4658 -0.0110
vn 0.8845 0.4658 0.0241
vn 0.9906 0.1358 0.0135
vn 0.8848 0.4658 -0.0110
vn 0.6727 0.7396 -0.0217
vn 0.6723 0.7396 0.0318
vn 0.8845 0.4658 0.0241
vn 0.6727 0.7396 -0.0217
vn 0.3802 0.9244 -0.0299
vn 0.3797 0.9244 0.0357
vn 0.6723 0.7396 0.0318
vn 0.3802 0.9244 -0.0299
vn 0.0422 0.9985 -0.0345
vn 0.0417 0.9985 0.0353
vn 0.3797 0.9244 0.0357
vn 0.0422 0.9985 -0.0345
vn -0.3008 0.9531 -0.0350
vn -0.3013 0.9530 0.0307
vn 0.0417 0.9985 0.0353
vn -0.3008 0.9531 -0.0350
vn -0.6079 0.7934 -0.0312
vn -0.6083 0.7934 0.0224
vn -0.3013 0.9530 0.0307
vn -0.6079 0.7934 -0.0312
vn -0.8423 0.5384 -0.0237
vn -0.8426 0.5384 0.0114
vn -0.6083 0.7934 0.0224
vn -0.8423 0.5384 -0.0237
vn -0.9758 0.2184 -0.0134
vn -0.9758 0.2184 -0.0010
vn -0.8426 0.5384 0.0114
vn -0.9758 0.2184 -0.0134
vn -0.9917 -0.1283 -0.0014
vn -0.9917 -0.1283 -0.0133
vn -0.9758 0.2184 -0.0010
vn -0.9917 -0.1283 -0.0014
vn -0.8879 -0.4599 0.0107
vn -0.8876 -0.4599 -0.0240
vn -0.9917 -0.1283 -0.0133
vn -0.8879 -0.4599 0.0107
vn -0.6764 -0.7362 0.0216
vn -0.6760 -0.7362 -0.0317
vn -0.8876 -0.4599 -0.0240
vn -0.6764 -0.7362 0.0216
vn -0.3826 -0.9234 0.0299
vn -0.3821 -0.9234 -0.0357
vn -0.6760 -0.7362 -0.0317
vn -0.3826 -0.9234 0.0299
vn -0.0422 -0.9985 0.0345
vn -0.0417 -0.9985 -0.0353
vn -0.3821 -0.9234 -0.0357
vn -0.0417 -0.9985 -0.0353
vn 0.3038 -0.9522 -0.0306
vn 0.3045 -0.9477 -0.0960
vn -0.0410 -0.9936 -0.1049
vn 0.3038 -0.9522 -0.0306
vn 0.6122 -0.7904 -0.0222
vn 0.6128 -0.7866 -0.0754
vn 0.3045 -0.9477 -0.0960
vn 0.6122 -0.7904 -0.0222
vn 0.8462 -0.5328 -0.0111
vn 0.8465 -0.5304 -0.0457
vn 0.6128 -0.7866 -0.0754
vn 0.8462 -0.5328 -0.0111
vn 0.9775 -0.2110 0.0013
vn 0.9776 -0.2102 -0.0105
vn 0.8465 -0.5304 -0.0457
vn 0.9775 -0.2110 0.0013
vn 0.9906 0.1358 0.0135
vn 0.9905 0.1349 0.0259
vn 0.9776 -0.2102 -0.0105
vn 0.9906 0.1358 0.0135
vn 0.8845 0.4658 0.0241
vn 0.8842 0.4634 0.0592
vn 0.9905 0.1349 0.0259
vn 0.8845 0.4658 0.0241
vn 0.6723 0.7396 0.0318
vn 0.6718 0.7358 0.0853
vn 0.8842 0.4634 0.0592
vn 0.6723 0.7396 0.0318
vn 0.3797 0.9244 0.0357
vn 0.3790 0.9198 0.1012
vn 0.6718 0.7358 0.0853
vn 0.3797 0.9244 0.0357
vn 0.0417 0.9985 0.0353
vn 0.0410 0.9936 0.1049
vn 0.3790 0.9198 0.1012
vn 0.0417 0.9985 0.0353
vn -0.3013 0.9530 0.0307
vn -0.3019 0.9485 0.0961
vn 0.0410 0.9936 0.1049
vn -0.3013 0.9530 0.0307
vn -0.6083 0.7934 0.0224
vn -0.6088 0.7897 0.0758
vn -0.3019 0.9485 0.0961
vn -0.6083 0.7934 0.0224
vn -0.8426 0.5384 0.0114
vn -0.8430 0.5360 0.0464
vn -0.6088 0.7897 0.0758
vn -0.8426 0.5384 0.0114
vn -0.9758 0.2184 -0.0010
vn -0.9760 0.2176 0.0113
vn -0.8430 0.5360 0.0464
vn -0.9758 0.2184 -0.0010
vn -0.9917 -0.1283 -0.0133
vn -0.9915 -0.1274 -0.0251
vn -0.9760 0.2176 0.0113
vn -0.9917 -0.1283 -0.0133
vn -0.8876 -0.4599 -0.0240
vn -0.8873 -0.4575 -0.0586
vn -0.9915 -0.1274 -0.0251
vn -0.8876 -0.4599 -0.0240
vn -0.6760 -0.7362 -0.0317
vn -0.6754 -0.7325 -0.0850
vn -0.8873 -0.4575 -0.0586
vn -0.6760 -0.7362 -0.0317
vn -0.3821 -0.9234 -0.0357
vn -0.3815 -0.9188 -0.1011
vn -0.6754 -0.7325 -0.0850
vn -0.3821 -0.9234 -0.0357
vn -0.0417 -0.9985 -0.0353
vn -0.0410 -0.9936 -0.1049
vn -0.3815 -0.9188 -0.1011
vn -0.0410 -0.9936 -0.1049
vn 0.3045 -0.9477 -0.0960
vn 0.3047 -0.9437 -0.1286
vn -0.0406 -0.9894 -0.1396
vn 0.3045 -0.9477 -0.0960
vn 0.6128 -0.7866 -0.0754
vn 0.6129 -0.7836 -0.1019
vn 0.3047 -0.9437 -0.1286
vn 0.6128 -0.7866 -0.0754
vn 0.8465 -0.5304 -0.0457
vn 0.8466 -0.5285 -0.0630
vn 0.6129 -0.7836 -0.1019
vn 0.8465 -0.5304 -0.0457
vn 0.9776 -0.2102 -0.0105
vn 0.9777 -0.2096 -0.0164
vn 0.8466 -0.5285 -0.0630
vn 0.9776 -0.2102 -0.0105
vn 0.9905 0.1349 0.0259
vn 0.9904 0.1343 0.0320
vn 0.9777 -0.2096 -0.0164
vn 0.9905 0.1349 0.0259
vn 0.8842 0.4634 0.0592
vn 0.8838 0.4615 0.0766
vn 0.9904 0.1343 0.0320
vn 0.8842 0.4634 0.0592
vn 0.6718 0.7358 0.0853
vn 0.6712 0.7328 0.1119
vn 0.8838 0.4615 0.0766
vn 0.6718 0.7358 0.0853
vn 0.3790 0.9198 0.1012
vn 0.3784 0.9159 0.1337
vn 0.6712 0.7328 0.1119
vn 0.3790 0.9198 0.1012
vn 0.0410 0.9936 0.1049
vn 0.0406 0.9894 0.1396
vn 0.3784 0.9159 0.1337
vn 0.0410 0.9936 0.1049
vn -0.3019 0.9485 0.0961
vn -0.3022 0.9445 0.1287
vn 0.0406 0.9894 0.1396
vn -0.3019 0.9485 0.0961
vn -0.6088 0.7897 0.0758
vn -0.6089 0.7866 0.1024
vn -0.3022 0.9445 0.1287
vn -0.6088 0.7897 0.0758
vn -0.8430 0.5360 0.0464
vn -0.8430 0.5341 0.0638
vn -0.6089 0.7866 0.1024
vn -0.8430 0.5360 0.0464
vn -0.9760 0.2176 0.0113
vn -0.9760 0.2169 0.0175
vn -0.8430 0.5341 0.0638
vn -0.9760 0.2176 0.0113
vn -0.9915 -0.1274 -0.0251
vn -0.9914 -0.1268 -0.0310
vn -0.9760 0.2169 0.0175
vn -0.9915 -0.1274 -0.0251
vn -0.8873 -0.4575 -0.0586
vn -0.8869 -0.4556 -0.0758
vn -0.9914 -0.1268 -0.0310
vn -0.8873 -0.4575 -0.0586
vn -0.6754 -0.7325 -0.0850
vn -0.6749 -0.7295 -0.1115
vn -0.8869 -0.4556 -0.0758
vn -0.6754 -0.7325 -0.0850
vn -0.3815 -0.9188 -0.1011
vn -0.3809 -0.9149 -0.1336
vn -0.6749 -0.7295 -0.1115
vn -0.3815 -0.9188 -0.1011
vn -0.0410 -0.9936 -0.1049
vn -0.0406 -0.9894 -0.1396
vn -0.3809 -0.9149 -0.1336
vn -0.0146 -0.1736 0.9847
vn -0.0146 -0.1736 0.9847
vn -0.0146 -0.1736 0.9847
vn -0.0146 -0.1736 0.9847
vn -0.0146 -0.1736 0.9847
vn -0.0146 -0.1736 0.9847
vn -0.0146 -0.1736 0.9847
vn -0.0146 -0.1736 0.9847
vn -0.0146 -0.1736 0.9847
vn -0.0146 -0.1736 0.9847
vn -0.0146 -0.1736 0.9847
vn -0.0146 -0.1736 0.9847
vn -0.0146 -0.1736 0.9847
vn -0.0146 -0.1736 0.9847
vn -0.0146 -0.1736 0.9847
vn -0.0146 -0.1736 0.9847
vn -0.0146 -0.1736 0.9847
vn -0.0146 -0.1736 0.9847
vn -0.0146 -0.1736 0.9847
vn -0.0146 -0.1736 0.9847
vn -0.0146 -0.1736 0.9847
vn -0.0146 -0.1736 0.9847
vn -0.0146 -0.1736 0.9847
vn -0.0146 -0.1736 0.9847
vn -0.0146 -0.1736 0.9847
vn -0.0146 -0.1736 0.9847
vn -0.0146 -0.1736 0.9847
vn -0.0146 -0.1736 0.9847
vn -0.0146 -0.1736 0.9847
vn -0.0146 -0.1736 0.9847
vn -0.0146 -0.1736 0.9847
vn -0.0146 -0.1736 0.9847
vn -0.0146 -0.1736 0.9847
vn -0.0146 -0.1736 0.9847
vn -0.0146 -0.1736 0.9847
vn -0.0146 -0.1736 0.9847
# 432 vertex normals

vt 0.2827 0.0000 1.0000
vt 0.3037 0.0000 1.0000
vt 0.3246 0.0000 1.0000
vt 0.3456 0.0000 1.0000
vt 0.3665 0.0000 1.0000
vt 0.0105 0.0000 1.0000
vt 0.0314 0.0000 1.0000
vt 0.0524 0.0000 1.0000
vt 0.0733 0.0000 1.0000
vt 0.0942 0.0000 1.0000
vt 0.1152 0.0000 1.0000
vt 0.1361 0.0000 1.0000
vt 0.1571 0.0000 1.0000
vt 0.1780 0.0000 1.0000
vt 0.1990 0.0000 1.0000
vt 0.2199 0.0000 1.0000
vt 0.2409 0.0000 1.0000
vt 0.2618 0.0000 1.0000
vt 0.2827 0.7000 1.0000
vt 0.3037 0.7000 1.0000
vt 0.3246 0.7000 1.0000
vt 0.3456 0.7000 1.0000
vt 0.3665 0.7000 1.0000
vt 0.0105 0.7000 1.0000
vt 0.0314 0.7000 1.0000
vt 0.0524 0.7000 1.0000
vt 0.0733 0.7000 1.0000
vt 0.0942 0.7000 1.0000
vt 0.1152 0.7000 1.0000
vt 0.1361 0.7000 1.0000
vt 0.1571 0.7000 1.0000
vt 0.1780 0.7000 1.0000
vt 0.1990 0.7000 1.0000
vt 0.2199 0.7000 1.0000
vt 0.2409 0.7000 1.0000
vt 0.2618 0.7000 1.0000
vt 0.2827 1.4000 1.0000
vt 0.3037 1.4000 1.0000
vt 0.3246 1.4000 1.0000
vt 0.3456 1.4000 1.0000
vt 0.3665 1.4000 1.0000
vt 0.0105 1.4000 1.0000
vt 0.0314 1.4000 1.0000
vt 0.0524 1.4000 1.0000
vt 0.0733 1.4000 1.0000
vt 0.0942 1.4000 1.0000
vt 0.1152 1.4000 1.0000
vt 0.1361 1.4000 1.0000
vt 0.1571 1.4000 1.0000
vt 0.1780 1.4000 1.0000
vt 0.1990 1.4000 1.0000
vt 0.2199 1.4000 1.0000
vt 0.2409 1.4000 1.0000
vt 0.2618 1.4000 1.0000
vt 0.2827 2.1000 1.0000
vt 0.3037 2.1000 1.0000
vt 0.3246 2.1000 1.0000
vt 0.3456 2.1000 1.0000
vt 0.3665 2.1000 1.0000
vt 0.0105 2.1000 1.0000
vt 0.0314 2.1000 1.0000
vt 0.0524 2.1000 1.0000
vt 0.0733 2.1000 1.0000
vt 0.0942 2.1000 1.0000
vt 0.1152 2.1000 1.0000
vt 0.1361 2.1000 1.0000
vt 0.1571 2.1000 1.0000
vt 0.1780 2.1000 1.0000
vt 0.1990 2.1000 1.0000
vt 0.2199 2.1000 1.0000
vt 0.2409 2.1000 1.0000
vt 0.2618 2.1000 1.0000
vt 0.2827 2.8000 1.0000
vt 0.3037 2.8000 1.0000
vt 0.3246 2.8000 1.0000
vt 0.3456 2.8000 1.0000
vt 0.3665 2.8000 1.0000
vt 0.0105 2.8000 1.0000
vt 0.0314 2.8000 1.0000
vt 0.0524 2.8000 1.0000
vt 0.0733 2.8000 1.0000
vt 0.0942 2.8000 1.0000
vt 0.1152 2.8000 1.0000
vt 0.1361 2.8000 1.0000
vt 0.1571 2.8000 1.0000
vt 0.1780 2.8000 1.0000
vt 0.1990 2.8000 1.0000
vt 0.2199 2.8000 1.0000
vt 0.2409 2.8000 1.0000
vt 0.2618 2.8000 1.0000
vt 0.2827 3.5000 1.0000
vt 0.3037 3.5000 1.0000
vt 0.3246 3.5000 1.0000
vt 0.3456 3.5000 1.0000
vt 0.3665 3.5000 1.0000
vt 0.0105 3.5000 1.0000
vt 0.0314 3.5000 1.0000
vt 0.0524 3.5000 1.0000
vt 0.0733 3.5000 1.0000
vt 0.0942 3.5000 1.0000
vt 0.1152 3.5000 1.0000
vt 0.1361 3.5000 1.0000
vt 0.1571 3.5000 1.0000
vt 0.1780 3.5000 1.0000
vt 0.1990 3.5000 1.0000
vt 0.2199 3.5000 1.0000
vt 0.2409 3.5000 1.0000
vt 0.2618 3.5000 1.0000
vt -0.0105 0.0000 1.0000
vt -0.0105 0.7000 1.0000
vt -0.0105 0.7000 1.0000
vt -0.0105 1.4000 1.0000
vt -0.0105 1.4000 1.0000
vt -0.0105 2.1000 1.0000
vt -0.0105 2.1000 1.0000
vt -0.0105 2.8000 1.0000
vt -0.0105 2.8000 1.0000
vt -0.0105 3.5000 1.0000
vt 0.0600 0.0591 0.0000
vt 0.1200 0.0591 0.0000
vt 0.1164 0.0386 0.0000
vt 0.1060 0.0205 0.0000
vt 0.0900 0.0071 0.0000
vt 0.0704 0.0000 0.0000
vt 0.0496 0.0000 0.0000
vt 0.0300 0.0071 0.0000
vt 0.0140 0.0205 0.0000
vt 0.0036 0.0386 0.0000
vt 0.0000 0.0591 0.0000
vt 0.0036 0.0796 0.0000
vt 0.0140 0.0977 0.0000
vt 0.0300 0.1110 0.0000
vt 0.0496 0.1182 0.0000
vt 0.0704 0.1182 0.0000
vt 0.0900 0.1111 0.0000
vt 0.1060 0.0977 0.0000
vt 0.1164 0.0796 0.0000
vt 0.1200 0.0591 0.0000
vt 0.1164 0.0796 0.0000
vt 0.1060 0.0977 0.0000
vt 0.0900 0.1110 0.0000
vt 0.0704 0.1182 0.0000
vt 0.0496 0.1182 0.0000
vt 0.0300 0.1110 0.0000
vt 0.0140 0.0977 0.0000
vt 0.0036 0.0796 0.0000
vt 0.0000 0.0591 0.0000
vt 0.0036 0.0386 0.0000
vt 0.0140 0.0205 0.0000
vt 0.0300 0.0071 0.0000
vt 0.0496 0.0000 0.0000
vt 0.0704 0.0000 0.0000
vt 0.0900 0.0071 0.0000
vt 0.1060 0.0205 0.0000
vt 0.1164 0.0386 0.0000
vt 0.0600 0.0591 0.0000
# 156 texture coords

g Cylinder001
usemtl wire_108008136
s 1
f 1/119/1 4/122/2 3/121/3 2/120/4 
f 1/119/5 6/124/6 5/123/7 4/122/8 
f 1/119/9 8/126/10 7/125/11 6/124/12 
f 1/119/13 10/128/14 9/127/15 8/126/16 
f 1/119/17 12/130/18 11/129/19 10/128/20 
f 1/119/21 14/132/22 13/131/23 12/130/24 
f 1/119/25 16/134/26 15/133/27 14/132/28 
f 1/119/29 18/136/30 17/135/31 16/134/32 
f 1/119/33 2/120/34 19/137/35 18/136/36 
s 8
f 2/1/37 3/2/38 21/20/39 20/19/40 
f 3/2/41 4/3/42 22/21/43 21/20/44 
f 4/3/45 5/4/46 23/22/47 22/21/48 
f 5/4/49 6/5/50 24/23/51 23/22/52 
f 6/109/53 7/6/54 25/24/55 24/110/56 
f 7/6/57 8/7/58 26/25/59 25/24/60 
f 8/7/61 9/8/62 27/26/63 26/25/64 
f 9/8/65 10/9/66 28/27/67 27/26/68 
f 10/9/69 11/10/70 29/28/71 28/27/72 
f 11/10/73 12/11/74 30/29/75 29/28/76 
f 12/11/77 13/12/78 31/30/79 30/29/80 
f 13/12/81 14/13/82 32/31/83 31/30/84 
f 14/13/85 15/14/86 33/32/87 32/31/88 
f 15/14/89 16/15/90 34/33/91 33/32/92 
f 16/15/93 17/16/94 35/34/95 34/33/96 
f 17/16/97 18/17/98 36/35/99 35/34/100 
f 18/17/101 19/18/102 37/36/103 36/35/104 
f 19/18/105 2/1/106 20/19/107 37/36/108 
f 20/19/109 21/20/110 39/38/111 38/37/112 
f 21/20/113 22/21/114 40/39/115 39/38/116 
f 22/21/117 23/22/118 41/40/119 40/39/120 
f 23/22/121 24/23/122 42/41/123 41/40/124 
f 24/111/125 25/24/126 43/42/127 42/112/128 
f 25/24/129 26/25/130 44/43/131 43/42/132 
f 26/25/133 27/26/134 45/44/135 44/43/136 
f 27/26/137 28/27/138 46/45/139 45/44/140 
f 28/27/141 29/28/142 47/46/143 46/45/144 
f 29/28/145 30/29/146 48/47/147 47/46/148 
f 30/29/149 31/30/150 49/48/151 48/47/152 
f 31/30/153 32/31/154 50/49/155 49/48/156 
f 32/31/157 33/32/158 51/50/159 50/49/160 
f 33/32/161 34/33/162 52/51/163 51/50/164 
f 34/33/165 35/34/166 53/52/167 52/51/168 
f 35/34/169 36/35/170 54/53/171 53/52/172 
f 36/35/173 37/36/174 55/54/175 54/53/176 
f 37/36/177 20/19/178 38/37/179 55/54/180 
f 38/37/181 39/38/182 57/56/183 56/55/184 
f 39/38/185 40/39/186 58/57/187 57/56/188 
f 40/39/189 41/40/190 59/58/191 58/57/192 
f 41/40/193 42/41/194 60/59/195 59/58/196 
f 42/113/197 43/42/198 61/60/199 60/114/200 
f 43/42/201 44/43/202 62/61/203 61/60/204 
f 44/43/205 45/44/206 63/62/207 62/61/208 
f 45/44/209 46/45/210 64/63/211 63/62/212 
f 46/45/213 47/46/214 65/64/215 64/63/216 
f 47/46/217 48/47/218 66/65/219 65/64/220 
f 48/47/221 49/48/222 67/66/223 66/65/224 
f 49/48/225 50/49/226 68/67/227 67/66/228 
f 50/49/229 51/50/230 69/68/231 68/67/232 
f 51/50/233 52/51/234 70/69/235 69/68/236 
f 52/51/237 53/52/238 71/70/239 70/69/240 
f 53/52/241 54/53/242 72/71/243 71/70/244 
f 54/53/245 55/54/246 73/72/247 72/71/248 
f 55/54/249 38/37/250 56/55/251 73/72/252 
f 56/55/253 57/56/254 75/74/255 74/73/256 
f 57/56/257 58/57/258 76/75/259 75/74/260 
f 58/57/261 59/58/262 77/76/263 76/75/264 
f 59/58/265 60/59/266 78/77/267 77/76/268 
f 60/115/269 61/60/270 79/78/271 78/116/272 
f 61/60/273 62/61/274 80/79/275 79/78/276 
f 62/61/277 63/62/278 81/80/279 80/79/280 
f 63/62/281 64/63/282 82/81/283 81/80/284 
f 64/63/285 65/64/286 83/82/287 82/81/288 
f 65/64/289 66/65/290 84/83/291 83/82/292 
f 66/65/293 67/66/294 85/84/295 84/83/296 
f 67/66/297 68/67/298 86/85/299 85/84/300 
f 68/67/301 69/68/302 87/86/303 86/85/304 
f 69/68/305 70/69/306 88/87/307 87/86/308 
f 70/69/309 71/70/310 89/88/311 88/87/312 
f 71/70/313 72/71/314 90/89/315 89/88/316 
f 72/71/317 73/72/318 91/90/319 90/89/320 
f 73/72/321 56/55/322 74/73/323 91/90/324 
f 74/73/325 75/74/326 93/92/327 92/91/328 
f 75/74/329 76/75/330 94/93/331 93/92/332 
f 76/75/333 77/76/334 95/94/335 94/93/336 
f 77/76/337 78/77/338 96/95/339 95/94/340 
f 78/117/341 79/78/342 97/96/343 96/118/344 
f 79/78/345 80/79/346 98/97/347 97/96/348 
f 80/79/349 81/80/350 99/98/351 98/97/352 
f 81/80/353 82/81/354 100/99/355 99/98/356 
f 82/81/357 83/82/358 101/100/359 100/99/360 
f 83/82/361 84/83/362 102/101/363 101/100/364 
f 84/83/365 85/84/366 103/102/367 102/101/368 
f 85/84/369 86/85/370 104/103/371 103/102/372 
f 86/85/373 87/86/374 105/104/375 104/103/376 
f 87/86/377 88/87/378 106/105/379 105/104/380 
f 88/87/381 89/88/382 107/106/383 106/105/384 
f 89/88/385 90/89/386 108/107/387 107/106/388 
f 90/89/389 91/90/390 109/108/391 108/107/392 
f 91/90/393 74/73/394 92/91/395 109/108/396 
s 1
f 110/156/397 109/155/398 92/138/399 93/139/400 
f 110/156/401 93/139/402 94/140/403 95/141/404 
f 110/156/405 95/141/406 96/142/407 97/143/408 
f 110/156/409 97/143/410 98/144/411 99/145/412 
f 110/156/413 99/145/414 100/146/415 101/147/416 
f 110/156/417 101/147/418 102/148/419 103/149/420 
f 110/156/421 103/149/422 104/150/423 105/151/424 
f 110/156/425 105/151/426 106/152/427 107/153/428 
f 110/156/429 107/153/430 108/154/431 109/155/432 
# 108 polygons

